<svg width="20" height="23" viewBox="0 0 40 43" fill="none" xmlns="http://www.w3.org/2000/svg">
<path d="M20.0295 30.9607C18.3587 30.9607 16.6683 30.5282 15.3514 29.683L3.51843 21.9582C1.31695 20.5233 0 18.1056 0 15.4718C0 12.8379 1.31695 10.4202 3.51843 8.98527L15.371 1.28011C18.0049 -0.429965 22.113 -0.429965 24.7273 1.29977L36.5012 9.02459C38.683 10.4595 40 12.8772 40 15.4914C40 18.1056 38.683 20.5233 36.5012 21.9582L24.7273 29.683C23.4103 30.5479 21.7199 30.9607 20.0295 30.9607ZM20.0295 2.95087C18.9091 2.95087 17.7887 3.2064 16.9828 3.75677L5.14988 11.4619C3.77396 12.3661 2.96806 13.8207 2.96806 15.4718C2.96806 17.1229 3.7543 18.5774 5.14988 19.4815L16.9828 27.2064C18.6142 28.2678 21.484 28.2678 23.1155 27.2064L34.8894 19.4815C36.2654 18.5774 37.0516 17.1229 37.0516 15.4718C37.0516 13.8207 36.2654 12.3661 34.8894 11.4619L23.1155 3.73711C22.2899 3.22606 21.1695 2.95087 20.0295 2.95087Z" fill="white"/>
<path d="M20.0075 42.263C19.1427 42.263 18.2582 42.145 17.5505 41.9091L11.2803 39.8256C8.31221 38.8428 5.97314 35.5996 5.9928 32.4743L6.01245 23.2556C6.01245 22.4497 6.68076 21.7814 7.48666 21.7814C8.29255 21.7814 8.96086 22.4497 8.96086 23.2556L8.9412 32.4743C8.9412 34.3219 10.4744 36.4448 12.2238 37.0344L18.494 39.118C19.2803 39.3735 20.7348 39.3735 21.5211 39.118L27.7913 37.0344C29.5407 36.4448 31.0739 34.3219 31.0739 32.4939V23.3735C31.0739 22.5676 31.7422 21.8993 32.5481 21.8993C33.354 21.8993 34.0223 22.5676 34.0223 23.3735V32.4939C34.0223 35.6192 31.7029 38.8428 28.7348 39.8453L22.4646 41.9288C21.7569 42.145 20.8724 42.263 20.0075 42.263Z" fill="white"/>
<path d="M38.4864 28.5036C37.6805 28.5036 37.0122 27.8353 37.0122 27.0294V15.2358C37.0122 14.4299 37.6805 13.7616 38.4864 13.7616C39.2923 13.7616 39.9606 14.4299 39.9606 15.2358V27.0294C39.9606 27.8353 39.2923 28.5036 38.4864 28.5036Z" fill="white"/>
</svg>
