<svg width="50" height="50" viewBox="0 0 50 50" fill="none" xmlns="http://www.w3.org/2000/svg">
<path d="M48.4375 25C48.4392 23.2056 47.9993 21.4384 47.1567 19.8541C46.3142 18.2698 45.0948 16.9172 43.606 15.9154C42.1173 14.9137 40.405 14.2936 38.62 14.1099C36.8351 13.9261 35.0323 14.1844 33.3707 14.8618C31.7091 15.5393 30.2397 16.6151 29.0921 17.9945C27.9444 19.3739 27.1538 21.0145 26.7898 22.7716C26.4259 24.5287 26.4999 26.3483 27.0052 28.0701C27.5105 29.7918 28.4317 31.3628 29.6875 32.6445V43.75C29.6873 44.0165 29.7553 44.2786 29.8849 44.5114C30.0146 44.7442 30.2016 44.94 30.4283 45.0801C30.6549 45.2202 30.9137 45.3001 31.1799 45.312C31.4461 45.324 31.7109 45.2677 31.9492 45.1484L37.5 42.3711L43.0508 45.1484C43.2891 45.2677 43.5539 45.324 43.8201 45.312C44.0863 45.3001 44.3451 45.2202 44.5717 45.0801C44.7984 44.94 44.9854 44.7442 45.1151 44.5114C45.2447 44.2786 45.3127 44.0165 45.3125 43.75V32.6445C47.3165 30.6049 48.4388 27.8594 48.4375 25ZM37.5 17.1875C39.0452 17.1875 40.5556 17.6457 41.8404 18.5041C43.1252 19.3626 44.1265 20.5827 44.7178 22.0103C45.3091 23.4378 45.4638 25.0087 45.1624 26.5241C44.8609 28.0396 44.1169 29.4317 43.0243 30.5243C41.9317 31.6169 40.5396 32.3609 39.0241 32.6624C37.5087 32.9638 35.9378 32.8091 34.5103 32.2178C33.0827 31.6265 31.8626 30.6252 31.0041 29.3404C30.1457 28.0556 29.6875 26.5452 29.6875 25C29.6875 22.928 30.5106 20.9409 31.9757 19.4757C33.4409 18.0106 35.428 17.1875 37.5 17.1875ZM38.1992 39.2266C37.9821 39.1179 37.7427 39.0614 37.5 39.0614C37.2573 39.0614 37.0179 39.1179 36.8008 39.2266L32.8125 41.2227V34.8809C34.2772 35.5766 35.8784 35.9375 37.5 35.9375C39.1216 35.9375 40.7228 35.5766 42.1875 34.8809V41.2227L38.1992 39.2266ZM26.5625 37.5C26.5625 37.9144 26.3979 38.3118 26.1049 38.6049C25.8118 38.8979 25.4144 39.0625 25 39.0625H7.8125C6.9837 39.0625 6.18884 38.7333 5.60279 38.1472C5.01674 37.5612 4.6875 36.7663 4.6875 35.9375V10.9375C4.6875 10.1087 5.01674 9.31384 5.60279 8.72779C6.18884 8.14174 6.9837 7.8125 7.8125 7.8125H42.1875C43.0163 7.8125 43.8112 8.14174 44.3972 8.72779C44.9833 9.31384 45.3125 10.1087 45.3125 10.9375C45.3125 11.3519 45.1479 11.7493 44.8549 12.0424C44.5618 12.3354 44.1644 12.5 43.75 12.5C43.3356 12.5 42.9382 12.3354 42.6451 12.0424C42.3521 11.7493 42.1875 11.3519 42.1875 10.9375H7.8125V35.9375H25C25.4144 35.9375 25.8118 36.1021 26.1049 36.3951C26.3979 36.6882 26.5625 37.0856 26.5625 37.5ZM23.4375 26.5625C23.4375 26.9769 23.2729 27.3743 22.9799 27.6674C22.6868 27.9604 22.2894 28.125 21.875 28.125H14.0625C13.6481 28.125 13.2507 27.9604 12.9576 27.6674C12.6646 27.3743 12.5 26.9769 12.5 26.5625C12.5 26.1481 12.6646 25.7507 12.9576 25.4576C13.2507 25.1646 13.6481 25 14.0625 25H21.875C22.2894 25 22.6868 25.1646 22.9799 25.4576C23.2729 25.7507 23.4375 26.1481 23.4375 26.5625ZM23.4375 20.3125C23.4375 20.7269 23.2729 21.1243 22.9799 21.4174C22.6868 21.7104 22.2894 21.875 21.875 21.875H14.0625C13.6481 21.875 13.2507 21.7104 12.9576 21.4174C12.6646 21.1243 12.5 20.7269 12.5 20.3125C12.5 19.8981 12.6646 19.5007 12.9576 19.2076C13.2507 18.9146 13.6481 18.75 14.0625 18.75H21.875C22.2894 18.75 22.6868 18.9146 22.9799 19.2076C23.2729 19.5007 23.4375 19.8981 23.4375 20.3125Z" fill="black"/>
</svg>
