<svg width="37" height="40" viewBox="0 0 37 40" fill="none" xmlns="http://www.w3.org/2000/svg">
<path d="M6.17188 33.9412C5.02761 33.9412 3.95838 33.5471 3.18928 32.8155C2.21385 31.8964 1.74488 30.5082 1.91371 29.0075L2.60777 22.9298C2.73908 21.7855 3.43315 20.2661 4.23976 19.4407L19.6405 3.13975C23.4859 -0.930833 27.5002 -1.04338 31.5708 2.8021C35.6414 6.64758 35.754 10.6619 31.9085 14.7325L16.5078 31.0335C15.7199 31.8776 14.2568 32.6654 13.1125 32.8532L7.07228 33.8847C6.75339 33.9035 6.47201 33.9412 6.17188 33.9412ZM25.6619 2.78334C24.2175 2.78334 22.9607 3.68375 21.6851 5.03435L6.28443 21.3543C5.90926 21.7482 5.47782 22.6861 5.40278 23.2301L4.70872 29.3077C4.63369 29.9267 4.78375 30.4332 5.1214 30.7521C5.45906 31.071 5.96553 31.1835 6.58456 31.0897L12.6248 30.0582C13.1688 29.9644 14.0692 29.4765 14.4444 29.0826L29.8451 12.7816C32.1711 10.3055 33.0152 8.01695 29.62 4.82801C28.1193 3.38361 26.8249 2.78334 25.6619 2.78334Z" fill="black"/>
<path d="M28.3071 17.8647C28.2696 17.8647 28.2133 17.8647 28.1758 17.8647C22.3232 17.2832 17.6148 12.8375 16.7144 7.02239C16.6018 6.25329 17.1271 5.54047 17.8962 5.40916C18.6653 5.29661 19.3781 5.82185 19.5094 6.59094C20.2222 11.1305 23.8989 14.6196 28.4759 15.0698C29.245 15.1448 29.8078 15.8389 29.7328 16.6079C29.639 17.3207 29.0199 17.8647 28.3071 17.8647Z" fill="black"/>
<path d="M35.1721 40H1.40688C0.637787 40 0 39.3622 0 38.5931C0 37.824 0.637787 37.1862 1.40688 37.1862H35.1721C35.9412 37.1862 36.579 37.824 36.579 38.5931C36.579 39.3622 35.9412 40 35.1721 40Z" fill="black"/>
</svg>
