<svg width="20" height="19" viewBox="0 0 44 43" fill="none" xmlns="http://www.w3.org/2000/svg">
<path d="M2 40.9399H42"  stroke-width="3" stroke-miterlimit="10" stroke-linecap="round" stroke-linejoin="round"/>
<path d="M3.89941 40.9399L3.99941 16.8799C3.99941 15.6599 4.57941 14.5 5.53941 13.74L19.5395 2.84C20.9795 1.72 22.9993 1.72 24.4593 2.84L38.4595 13.72C39.4395 14.48 39.9995 15.6399 39.9995 16.8799V40.9399" stroke="black" stroke-width="3" stroke-miterlimit="10" stroke-linejoin="round"/>
<path d="M24 30.9399H20C18.34 30.9399 17 32.2799 17 33.9399V40.9399H27V33.9399C27 32.2799 25.66 30.9399 24 30.9399Z" stroke="black" stroke-width="3" stroke-miterlimit="10" stroke-linejoin="round"/>
<path d="M17 24.4399H13C11.9 24.4399 11 23.5399 11 22.4399V19.4399C11 18.3399 11.9 17.4399 13 17.4399H17C18.1 17.4399 19 18.3399 19 19.4399V22.4399C19 23.5399 18.1 24.4399 17 24.4399Z" stroke="black" stroke-width="3" stroke-miterlimit="10" stroke-linejoin="round"/>
<path d="M31 24.4399H27C25.9 24.4399 25 23.5399 25 22.4399V19.4399C25 18.3399 25.9 17.4399 27 17.4399H31C32.1 17.4399 33 18.3399 33 19.4399V22.4399C33 23.5399 32.1 24.4399 31 24.4399Z" stroke="black" stroke-width="3" stroke-miterlimit="10" stroke-linejoin="round"/>
<path d="M36.0006 10.9399L35.9406 4.93994H27.1406" stroke="black" stroke-width="3" stroke-miterlimit="10" stroke-linecap="round" stroke-linejoin="round"/>
</svg>
