<svg width="40" height="42" viewBox="0 0 40 42" fill="none" xmlns="http://www.w3.org/2000/svg">
<path d="M10.6981 8.37209C9.93529 8.37209 9.30273 7.73954 9.30273 6.97674V1.39535C9.30273 0.632558 9.93529 0 10.6981 0C11.4609 0 12.0934 0.632558 12.0934 1.39535V6.97674C12.0934 7.73954 11.4609 8.37209 10.6981 8.37209Z" fill="black"/>
<path d="M25.5819 8.37209C24.8191 8.37209 24.1865 7.73954 24.1865 6.97674V1.39535C24.1865 0.632558 24.8191 0 25.5819 0C26.3447 0 26.9772 0.632558 26.9772 1.39535V6.97674C26.9772 7.73954 26.3447 8.37209 25.5819 8.37209Z" fill="black"/>
<path d="M23.1256 39.9998H10.6977C3.90698 39.9998 0 36.0929 0 29.3022V13.4882C0 6.6975 3.90698 2.79053 10.6977 2.79053H25.5814C32.3721 2.79053 36.2791 6.6975 36.2791 13.4882V23.0324C36.2791 23.5719 35.9628 24.0556 35.4977 24.2975C35.014 24.5208 34.4372 24.4649 34.0279 24.1301C31.0884 21.7859 26.5674 21.7859 23.6279 24.1859C21.6186 25.7673 20.4837 28.1301 20.4837 30.7161C20.4837 32.2417 20.893 33.7301 21.693 35.0138C22.307 36.0184 23.0698 36.8556 23.9628 37.4882C24.4465 37.8417 24.6698 38.4742 24.4837 39.051C24.2605 39.6091 23.7395 39.9998 23.1256 39.9998ZM10.6977 5.58122C5.37674 5.58122 2.7907 8.16727 2.7907 13.4882V29.3022C2.7907 34.6231 5.37674 37.2091 10.6977 37.2091H19.7953C19.6093 36.9673 19.4419 36.7068 19.293 36.4463C18.2326 34.7347 17.6744 32.744 17.6744 30.6975C17.6744 27.2556 19.2 24.0929 21.8791 21.9905C25.0605 19.4045 29.7674 18.8463 33.4884 20.558V13.4882C33.4884 8.16727 30.9023 5.58122 25.5814 5.58122H10.6977Z" fill="black"/>
<path d="M19.9995 19.5348H8.83675C8.07396 19.5348 7.44141 18.9023 7.44141 18.1395C7.44141 17.3767 8.07396 16.7441 8.83675 16.7441H19.9995C20.7623 16.7441 21.3949 17.3767 21.3949 18.1395C21.3949 18.9023 20.7623 19.5348 19.9995 19.5348Z" fill="black"/>
<path d="M13.7112 28.8371H8.83676C8.07396 28.8371 7.44141 28.2045 7.44141 27.4417C7.44141 26.6789 8.07396 26.0464 8.83676 26.0464H13.7112C14.474 26.0464 15.1065 26.6789 15.1065 27.4417C15.1065 28.2045 14.4926 28.8371 13.7112 28.8371Z" fill="black"/>
<path d="M28.8376 41.8606C26.4562 41.8606 24.205 41.1164 22.3074 39.7397C21.1167 38.8839 20.0934 37.7676 19.2934 36.4466C18.2329 34.735 17.6748 32.7443 17.6748 30.6978C17.6748 27.2559 19.2004 24.0932 21.8795 21.9908C25.7492 18.8466 31.8515 18.828 35.7585 21.935C38.4562 24.0559 40.0004 27.2559 40.0004 30.6978C40.0004 32.7443 39.4422 34.735 38.3818 36.4466C37.7864 37.4699 37.0236 38.3629 36.1492 39.0885C34.1585 40.8745 31.5539 41.8606 28.8376 41.8606ZM28.8376 22.3257C26.9399 22.3257 25.0795 22.9769 23.6097 24.1676C21.6004 25.749 20.4655 28.1118 20.4655 30.6978C20.4655 32.2234 20.8748 33.7118 21.6748 34.9955C22.2888 36.0001 23.0515 36.8373 23.9446 37.4699C25.3771 38.5118 27.0702 39.0699 28.8376 39.0699C30.9027 39.0699 32.8004 38.3443 34.326 36.9862C34.9957 36.428 35.5353 35.7769 35.9818 35.0141C36.7818 33.7118 37.2097 32.2234 37.2097 30.6978C37.2097 28.1118 36.0562 25.7302 34.0283 24.1302C32.5399 22.9395 30.7539 22.3257 28.8376 22.3257Z" fill="black"/>
<path d="M28.8375 36.7444C28.0747 36.7444 27.4422 36.1118 27.4422 35.349C27.4422 33.563 25.9724 32.0932 24.1864 32.0932C23.4236 32.0932 22.791 31.4607 22.791 30.6979C22.791 29.9351 23.4236 29.3025 24.1864 29.3025C25.9724 29.3025 27.4422 27.8328 27.4422 26.0467C27.4422 25.2839 28.0747 24.6514 28.8375 24.6514C29.6003 24.6514 30.2329 25.2839 30.2329 26.0467C30.2329 27.8328 31.7026 29.3025 33.4887 29.3025C34.2515 29.3025 34.884 29.9351 34.884 30.6979C34.884 31.4607 34.2515 32.0932 33.4887 32.0932C31.7026 32.0932 30.2329 33.563 30.2329 35.349C30.2329 36.1118 29.6003 36.7444 28.8375 36.7444ZM28.0375 30.6979C28.3166 30.9397 28.5957 31.2002 28.8375 31.4979C29.0794 31.2188 29.3399 30.9397 29.6375 30.6979C29.3585 30.456 29.0794 30.1956 28.8375 29.8979C28.5957 30.1956 28.3352 30.456 28.0375 30.6979Z" fill="black"/>
</svg>
