<svg width="85" height="60" viewBox="0 0 85 60" fill="none" xmlns="http://www.w3.org/2000/svg">
<rect width="85" height="60" rx="15" fill="#E3853A"/>
<path d="M22 45.5556V14.4444C22 11.9898 23.9898 10 26.4444 10H51.2702C52.4489 10 53.5793 10.4682 54.4129 11.3018L60.6982 17.5871C61.5318 18.4206 62 19.5511 62 20.7298V45.5556C62 48.0102 60.0102 50 57.5556 50H26.4444C23.9898 50 22 48.0102 22 45.5556Z" stroke="black" stroke-width="3"/>
<path d="M34.4447 23.3333H49.5558C50.2922 23.3333 50.8891 22.7364 50.8891 22V11.3333C50.8891 10.597 50.2922 10 49.5558 10H34.4447C33.7083 10 33.1113 10.597 33.1113 11.3333V22C33.1113 22.7364 33.7083 23.3333 34.4447 23.3333Z" stroke="black" stroke-width="3"/>
<path d="M28.667 33.5556V50H55.3337V33.5556C55.3337 32.8191 54.7368 32.2222 54.0003 32.2222H30.0003C29.2639 32.2222 28.667 32.8191 28.667 33.5556Z" stroke="black" stroke-width="3"/>
</svg>
