<svg width="85" height="60" viewBox="0 0 85 60" fill="none" xmlns="http://www.w3.org/2000/svg">
<rect width="85" height="60" rx="15" fill="#E3853A"/>
<path d="M30.1719 43.9412C29.0276 43.9412 27.9584 43.5471 27.1893 42.8155C26.2138 41.8964 25.7449 40.5082 25.9137 39.0075L26.6078 32.9298C26.7391 31.7855 27.4331 30.2661 28.2398 29.4407L43.6405 13.1398C47.4859 9.06917 51.5002 8.95662 55.5708 12.8021C59.6414 16.6476 59.754 20.6619 55.9085 24.7325L40.5078 41.0335C39.7199 41.8776 38.2568 42.6654 37.1125 42.8532L31.0723 43.8847C30.7534 43.9035 30.472 43.9412 30.1719 43.9412ZM49.6619 12.7833C48.2175 12.7833 46.9607 13.6837 45.6851 15.0344L30.2844 31.3543C29.9093 31.7482 29.4778 32.6861 29.4028 33.2301L28.7087 39.3077C28.6337 39.9267 28.7838 40.4332 29.1214 40.7521C29.4591 41.071 29.9655 41.1835 30.5846 41.0897L36.6248 40.0582C37.1688 39.9644 38.0692 39.4765 38.4444 39.0826L53.8451 22.7816C56.1711 20.3055 57.0152 18.0169 53.62 14.828C52.1193 13.3836 50.8249 12.7833 49.6619 12.7833Z" fill="#292D32"/>
<path d="M52.3071 27.8647C52.2696 27.8647 52.2133 27.8647 52.1758 27.8647C46.3232 27.2832 41.6148 22.8375 40.7144 17.0224C40.6018 16.2533 41.1271 15.5405 41.8962 15.4092C42.6653 15.2966 43.3781 15.8218 43.5094 16.5909C44.2222 21.1305 47.8989 24.6196 52.4759 25.0698C53.245 25.1448 53.8078 25.8389 53.7328 26.6079C53.639 27.3207 53.0199 27.8647 52.3071 27.8647Z" fill="#292D32"/>
<path d="M59.1721 50H25.4069C24.6378 50 24 49.3622 24 48.5931C24 47.824 24.6378 47.1862 25.4069 47.1862H59.1721C59.9412 47.1862 60.579 47.824 60.579 48.5931C60.579 49.3622 59.9412 50 59.1721 50Z" fill="#292D32"/>
</svg>
