<svg width="44" height="44" viewBox="0 0 44 44" fill="none" xmlns="http://www.w3.org/2000/svg">
<path d="M2 37.5556V6.44444C2 3.98984 3.98984 2 6.44444 2H31.2702C32.4489 2 33.5793 2.46824 34.4129 3.30176L40.6982 9.58713C41.5318 10.4206 42 11.5511 42 12.7298V37.5556C42 40.0102 40.0102 42 37.5556 42H6.44444C3.98984 42 2 40.0102 2 37.5556Z" stroke="black" stroke-width="3"/>
<path d="M14.4447 15.3333H29.5558C30.2922 15.3333 30.8891 14.7364 30.8891 14V3.33333C30.8891 2.59696 30.2922 2 29.5558 2H14.4447C13.7083 2 13.1113 2.59696 13.1113 3.33333V14C13.1113 14.7364 13.7083 15.3333 14.4447 15.3333Z" stroke="black" stroke-width="3"/>
<path d="M8.66699 25.5556V42H35.3337V25.5556C35.3337 24.8191 34.7368 24.2222 34.0003 24.2222H10.0003C9.26395 24.2222 8.66699 24.8191 8.66699 25.5556Z" stroke="black" stroke-width="3"/>
</svg>
