<svg width="20" height="20" viewBox="0 0 44 44" fill="none" xmlns="http://www.w3.org/2000/svg">
<path d="M22 28C25.3138 28 28 25.3138 28 22C28 18.6862 25.3138 16 22 16C18.6862 16 16 18.6862 16 22C16 25.3138 18.6862 28 22 28Z" stroke="white" stroke-width="3" stroke-linecap="round" stroke-linejoin="round"/>
<path d="M37.2448 18.7908L35.0494 13.4896L38 10L34 6L30.5294 8.9659L25.1156 6.73948L23.8706 2H19.962L18.6982 6.80226L13.4088 9.03192L10 6L6 10L8.90674 13.5777L6.745 18.8926L2 20V24L6.80222 25.311L9.0315 30.5994L6 34L10 38L13.5823 35.0806L18.794 37.2246L20 42H24L25.209 37.2264L30.5102 35.031C31.3938 35.6626 34 38 34 38L38 34L35.0318 30.4988L37.2278 25.196L41.9998 23.9544L42 20L37.2448 18.7908Z" stroke="white" stroke-width="3" stroke-linecap="round" stroke-linejoin="round"/>
</svg>
