<svg width="20" height="21" viewBox="0 0 40 41" fill="none" xmlns="http://www.w3.org/2000/svg">
<path d="M31.2061 12.4078C31.1502 12.4078 31.1129 12.4078 31.057 12.4078H30.9639C27.4428 12.296 24.8159 9.57598 24.8159 6.22254C24.8159 2.79458 27.6104 0.0186768 31.0198 0.0186768C34.4291 0.0186768 37.2236 2.81321 37.2236 6.22254C37.205 9.59461 34.5781 12.3146 31.2247 12.4264C31.2247 12.4078 31.2247 12.4078 31.2061 12.4078ZM31.0198 2.7946C29.1381 2.7946 27.6104 4.32227 27.6104 6.20393C27.6104 8.04832 29.045 9.53873 30.8894 9.61326C30.908 9.59462 31.057 9.59462 31.2247 9.61326C33.0318 9.5201 34.4291 8.02969 34.4477 6.20393C34.4477 4.32227 32.9201 2.7946 31.0198 2.7946Z" fill="black"/>
<path d="M31.2252 26.1384C30.4986 26.1384 29.772 26.0825 29.0454 25.9521C28.2816 25.8216 27.7786 25.0951 27.909 24.3312C28.0394 23.5674 28.766 23.0644 29.5298 23.1948C31.8213 23.586 34.2432 23.1577 35.8641 22.0772C36.7397 21.4996 37.2055 20.7729 37.2055 20.0463C37.2055 19.3197 36.7211 18.6117 35.8641 18.0342C34.2432 16.9537 31.7841 16.5252 29.4739 16.935C28.7101 17.0841 27.9835 16.5624 27.8531 15.7987C27.7227 15.0348 28.2257 14.3083 28.9895 14.1779C32.0262 13.6376 35.1748 14.2151 37.4104 15.7055C39.0498 16.8046 40 18.3696 40 20.0463C40 21.7044 39.0685 23.2881 37.4104 24.4059C35.715 25.5237 33.5167 26.1384 31.2252 26.1384Z" fill="black"/>
<path d="M8.79449 12.4077C8.77586 12.4077 8.75723 12.4077 8.75723 12.4077C5.40379 12.2959 2.77693 9.57593 2.7583 6.22249C2.7583 2.79453 5.55283 0 8.96216 0C12.3715 0 15.166 2.79453 15.166 6.20386C15.166 9.57593 12.5392 12.2959 9.18572 12.4077L8.79449 11.0105L8.9249 12.4077C8.88764 12.4077 8.83175 12.4077 8.79449 12.4077ZM8.98079 9.61319C9.09257 9.61319 9.18572 9.61319 9.29751 9.63182C10.9556 9.5573 12.4088 8.06688 12.4088 6.22249C12.4088 4.34084 10.8811 2.81314 8.99942 2.81314C7.11777 2.81314 5.59009 4.34084 5.59009 6.22249C5.59009 8.04825 7.00599 9.52004 8.81312 9.63182C8.83175 9.61319 8.90627 9.61319 8.98079 9.61319Z" fill="black"/>
<path d="M8.77483 26.1384C6.48331 26.1384 4.28495 25.5237 2.5896 24.4059C0.950141 23.3067 0 21.723 0 20.0463C0 18.3882 0.950141 16.8046 2.5896 15.7055C4.82523 14.2151 7.97373 13.6376 11.0105 14.1779C11.7743 14.3083 12.2773 15.0348 12.1469 15.7987C12.0165 16.5624 11.2899 17.0841 10.5261 16.935C8.21592 16.5252 5.77537 16.9537 4.13591 18.0342C3.26029 18.6117 2.79453 19.3197 2.79453 20.0463C2.79453 20.7729 3.27892 21.4996 4.13591 22.0772C5.75674 23.1577 8.17866 23.586 10.4702 23.1948C11.234 23.0644 11.9606 23.586 12.091 24.3312C12.2214 25.0951 11.7184 25.8216 10.9546 25.9521C10.228 26.0825 9.50141 26.1384 8.77483 26.1384Z" fill="black"/>
<path d="M20.0278 26.3244C19.972 26.3244 19.9347 26.3244 19.8788 26.3244H19.7856C16.2646 26.2126 13.6377 23.4926 13.6377 20.1392C13.6377 16.7112 16.4322 13.9353 19.8415 13.9353C23.2509 13.9353 26.0454 16.7299 26.0454 20.1392C26.0268 23.5113 23.3999 26.2313 20.0465 26.3431C20.0465 26.3244 20.0465 26.3244 20.0278 26.3244ZM19.8415 16.7112C17.9599 16.7112 16.4322 18.2389 16.4322 20.1206C16.4322 21.965 17.8667 23.4554 19.7111 23.5299C19.7298 23.5113 19.8788 23.5113 20.0465 23.5299C21.8536 23.4367 23.2509 21.9463 23.2695 20.1206C23.2695 18.2575 21.7418 16.7112 19.8415 16.7112Z" fill="black"/>
<path d="M20.0264 40.0736C17.7907 40.0736 15.5551 39.496 13.8225 38.3223C12.1831 37.2231 11.2329 35.6582 11.2329 33.9815C11.2329 32.3234 12.1644 30.7212 13.8225 29.622C17.3064 27.3119 22.765 27.3119 26.2302 29.622C27.8697 30.7212 28.8198 32.2861 28.8198 33.9629C28.8198 35.6209 27.8883 37.2231 26.2302 38.3223C24.4976 39.4774 22.262 40.0736 20.0264 40.0736ZM15.3688 31.9694C14.4932 32.547 14.0274 33.2735 14.0274 34.0001C14.0274 34.7267 14.5118 35.4346 15.3688 36.0122C17.8839 37.7075 22.1502 37.7075 24.6653 36.0122C25.5409 35.4346 26.0067 34.7081 26.0067 33.9815C26.0067 33.2549 25.5223 32.547 24.6653 31.9694C22.1688 30.2741 17.9025 30.2927 15.3688 31.9694Z" fill="black"/>
</svg>
